<svg id="Logo" xmlns="http://www.w3.org/2000/svg" width="137.75" height="28" viewBox="0 0 137.75 28">
  <defs>
    <style>
      .cls-1 {
        fill: #65e496;
      }

      .cls-1, .cls-2, .cls-3 {
        fill-rule: evenodd;
      }

      .cls-2 {
        fill: #fefefe;
      }

      .cls-3 {
        fill: #44444f;
      }
    </style>
  </defs>
  <path id="EE" class="cls-1" d="M333.75,73V67.559h-3.035l-0.178,2.379h-6.426V64.25h6.741V61.174h-6.741v-5h6.1l0.178,2.3h3.062V53.094H318V55.5l2.119,0.41V70.2l-2.119.41V73h15.75Zm19,0V67.559h-3.035l-0.178,2.379h-6.426V64.25h6.74V61.174h-6.74v-5h6.1l0.178,2.3h3.062V53.094H337V55.5l2.119,0.41V70.2l-2.119.41V73h15.75Z" transform="translate(-215 -50)"/>
  <path id="BUK" class="cls-2" d="M263.555,73a8.523,8.523,0,0,0,5.345-1.47,5.772,5.772,0,0,0,1.491-6.371,4.105,4.105,0,0,0-1.2-1.593,4.639,4.639,0,0,0-1.989-.916,4.417,4.417,0,0,0,2.126-1.634,4.315,4.315,0,0,0,.732-2.468,4.65,4.65,0,0,0-1.969-4.088,9.508,9.508,0,0,0-5.483-1.367h-8.845V55.5l2.119,0.41V70.2l-2.119.41V73h9.789Zm-3.678-8.8h3.978a3.589,3.589,0,0,1,1.675.342,2.144,2.144,0,0,1,.964,1.012,3.876,3.876,0,0,1,.315,1.654,2.5,2.5,0,0,1-.834,2.044,3.709,3.709,0,0,1-2.42.69h-3.678V64.2Zm0-8.025h2.734a4.265,4.265,0,0,1,2.591.656,2.388,2.388,0,0,1,.868,2.037,2.259,2.259,0,0,1-.861,1.914,4,4,0,0,1-2.461.656h-2.871V56.17Zm27.418,16.3a6.356,6.356,0,0,0,2.8-2.379,6.883,6.883,0,0,0,1-3.794V55.91l2.133-.41V53.094h-8.244V55.5l2.119,0.41V66.3a4.516,4.516,0,0,1-.478,2.188,3.024,3.024,0,0,1-1.374,1.306,4.931,4.931,0,0,1-2.154.431,4.817,4.817,0,0,1-2.119-.431,3.032,3.032,0,0,1-1.367-1.306,4.516,4.516,0,0,1-.478-2.187V55.91l2.132-.41V53.094h-8.244V55.5l2.119,0.41V66.3a6.881,6.881,0,0,0,1,3.787,6.376,6.376,0,0,0,2.8,2.379,9.937,9.937,0,0,0,4.163.82A10.086,10.086,0,0,0,287.3,72.474Zm25.681-16.6,1.873-.369V53.094H306.66V55.5l1.969,0.164-0.028.041-9.748,10.049,2.065,2.365ZM303.775,73V70.607l-2.023-.41V55.91l2.023-.41V53.094H295.64V55.5l2.12,0.41V70.2l-2.12.41V73h8.135Zm11.785,0V70.607l-1.955-.342-7.054-9.434-2.639,2.639,5.058,6.973h-0.013l-1.86.164V73h8.463Z" transform="translate(-215 -50)"/>
  <g id="logo_icon" data-name="logo icon">
    <path id="Rectangle_10_copy_3" data-name="Rectangle 10 copy 3" class="cls-1" d="M243,78L215,50h28V78Z" transform="translate(-215 -50)"/>
    <path class="cls-3" d="M243,50L215,78V50h28Z" transform="translate(-215 -50)"/>
  </g>
</svg>
